<svg xmlns="http://www.w3.org/2000/svg" width="1055" height="413" viewBox="0 0 1055 413" version="1.1"><path d="" stroke="none" fill="#080404" fill-rule="evenodd"/><path d="M 468.614 49.025 C 452.178 50.910, 445.117 54.764, 431.649 69.203 L 422.370 79.151 401.435 80.093 C 389.921 80.611, 379.825 81.246, 379 81.504 C 377.963 81.828, 376.472 79.987, 374.168 75.539 C 370.688 68.818, 362.817 59.991, 358.155 57.580 C 354.036 55.450, 340.032 53.647, 336.898 54.844 C 333.818 56.021, 330.969 61.605, 327.770 72.739 C 325.913 79.202, 325.537 83.008, 325.522 95.500 C 325.506 108.961, 325.735 111.001, 327.752 115.377 C 328.988 118.060, 330 120.388, 330 120.551 C 330 120.714, 325.163 124.568, 319.250 129.115 C 313.337 133.662, 302.051 142.734, 294.170 149.274 C 281.434 159.842, 279.654 161.011, 278.170 159.777 C 277.251 159.014, 274.054 156.246, 271.065 153.626 C 252.209 137.098, 227.148 125.352, 202.440 121.460 C 189.812 119.471, 170.213 119.916, 158.500 122.458 C 102.639 134.580, 64.060 178.674, 60.138 234.881 C 55.921 295.312, 88.615 346.597, 143.500 365.648 C 162.353 372.192, 184.128 373.930, 204.152 370.489 C 235.338 365.129, 266.362 347.615, 284.010 325.407 C 289.116 318.981, 297 306.267, 297 304.457 C 297 304.063, 292.387 308.451, 286.750 314.210 C 281.113 319.968, 273.125 327.043, 269 329.931 C 227.331 359.109, 178.501 354.683, 144.249 318.626 C 131.556 305.263, 124.204 292.240, 119.903 275.500 C 116.553 262.463, 116.747 244.438, 120.387 230.500 C 134.216 177.548, 186.277 145.458, 235.567 159.504 C 245.747 162.406, 265 171.315, 265 173.126 C 265 173.789, 261.288 177.732, 256.750 181.888 C 231.881 204.664, 197.477 240.301, 190.716 250.290 C 187.444 255.124, 187.534 257.618, 190.966 257.231 C 192.278 257.083, 207.109 247.784, 223.925 236.566 C 262.740 210.675, 286.846 195.833, 289.474 196.210 C 290.946 196.421, 293.035 199.549, 297.109 207.641 C 301.972 217.298, 303.970 222.675, 309.876 242 C 310.729 244.790, 310.869 242.964, 310.568 233 C 310.164 219.611, 308.170 209.996, 303.467 198.758 C 299.139 188.414, 298.786 189.431, 308.211 185.077 C 319.671 179.783, 340.368 172.361, 350.325 169.975 C 375.618 163.915, 390.881 167.060, 430.880 186.571 C 442.640 192.307, 453.338 197, 454.655 197 C 457.468 197, 458.244 195.336, 459.891 185.774 C 462.046 173.268, 464.762 166.282, 469.301 161.568 C 474.403 156.271, 478.437 155.013, 490.343 155.006 C 506.832 154.995, 528.804 160.704, 590.895 181.130 C 670.503 207.319, 687.684 211.062, 722 209.691 C 751.701 208.505, 767.583 203.142, 807.191 180.919 C 831.545 167.255, 846.984 159.909, 861.500 155.079 C 895.344 143.818, 921.991 145.712, 959.513 162.048 C 977.990 170.092, 979.985 169.789, 969.750 160.489 C 939.895 133.365, 903.066 117.110, 862 112.934 C 847.417 111.450, 830.727 112.295, 811.158 115.506 C 788.028 119.302, 785.753 119.015, 784.374 112.119 C 783.460 107.550, 780.854 106.476, 774.424 108.018 C 769.532 109.192, 768.982 109.131, 766.450 107.139 C 761.720 103.419, 757.748 104.250, 741.369 112.387 C 716.038 124.973, 705.217 128, 685.563 128 C 678.795 128, 666.787 127.280, 658.879 126.401 C 633.252 123.551, 625 125.395, 625 133.974 C 625 138.476, 623.551 140, 619.268 140 C 610.375 140, 592.877 131.747, 559.470 111.797 C 524.383 90.842, 516.047 86.875, 500.016 83.504 C 495.045 82.458, 467.806 79, 464.543 79 C 464.244 79, 464 78.360, 464 77.578 C 464 73.679, 477.244 72.346, 529.500 70.985 C 595.616 69.263, 599.975 67.835, 565.493 59.191 C 531.120 50.576, 491.426 46.410, 468.614 49.025 M 937.326 232.034 C 924.503 234.602, 916.636 244.705, 916.716 258.500 C 916.801 273.076, 924.463 282.490, 938.330 285.053 C 944.540 286.201, 954.230 284.966, 959.208 282.393 L 962 280.949 962 268.474 L 962 256 953.500 256 C 945.100 256, 945 256.029, 945 258.500 C 945 260.889, 945.267 261, 951 261 L 957 261 957 269.422 L 957 277.845 953.508 278.997 C 951.588 279.631, 947.168 280.166, 943.687 280.186 C 929.319 280.269, 920.956 270.649, 922.308 255.595 C 923.296 244.596, 931.575 236.857, 942.355 236.857 C 948.168 236.857, 953.675 238.696, 955.900 241.378 C 957.203 242.949, 957.461 242.916, 959.611 240.896 L 961.921 238.726 959.519 236.836 C 954.068 232.548, 944.786 230.540, 937.326 232.034 M 344 258.426 L 344 284 357.343 284 C 369.389 284, 371.114 283.774, 375.093 281.669 C 378.541 279.846, 379.925 278.313, 381.454 274.625 C 383.244 270.304, 383.286 269.560, 381.954 265.711 C 380.948 262.807, 379.331 260.757, 376.710 259.063 C 373.113 256.738, 373.024 256.557, 374.969 255.517 C 381.850 251.834, 381.982 240.518, 375.202 235.500 C 372.856 233.764, 370.621 233.457, 358.250 233.176 L 344 232.852 344 258.426 M 397 258.500 L 397 284 402 284 L 407 284 407 258.500 L 407 233 402 233 L 397 233 397 258.500 M 425 258.500 L 425 284 429.969 284 L 434.938 284 435.219 271.867 L 435.500 259.734 446 271.805 L 456.500 283.877 463.333 283.938 L 470.166 284 466.833 280.075 C 465 277.916, 459.330 271.661, 454.234 266.176 L 444.967 256.203 457.234 244.616 L 469.500 233.029 462.500 232.988 L 455.500 232.948 445.290 243.724 L 435.080 254.500 435.040 243.750 L 435 233 430 233 L 425 233 425 258.500 M 481 258.500 L 481 284 499 284 L 517 284 517 279.500 L 517 275 504 275 L 491 275 491 268.500 L 491 262 503.057 262 L 515.115 262 514.807 257.750 L 514.500 253.500 502.750 253.218 L 491 252.937 491 247.468 L 491 242 503.500 242 L 516 242 516 237.500 L 516 233 498.500 233 L 481 233 481 258.500 M 532 258.500 L 532 284 537 284 L 542 284 542 273.500 L 542 263 545.250 263.009 C 548.358 263.017, 548.740 263.476, 554 273.500 L 559.500 283.982 565.250 283.991 C 568.413 283.996, 571 283.796, 571 283.547 C 571 283.297, 568.300 278.624, 565 273.161 C 561.700 267.698, 559.010 262.840, 559.022 262.364 C 559.034 261.889, 560.469 260.825, 562.211 260 C 567.178 257.647, 569.429 253.790, 569.429 247.626 C 569.429 236.364, 563.837 233.055, 544.750 233.022 L 532 233 532 258.500 M 580.180 235.250 C 580.480 237.361, 581.039 237.518, 589.250 237.789 L 598 238.078 598 261.039 L 598 284 600.500 284 L 603 284 603 261 L 603 238 612 238 C 620.933 238, 621 237.981, 621 235.500 L 621 233 600.430 233 L 579.861 233 580.180 235.250 M 635 258.500 L 635 284 637.500 284 L 640 284 640 272 L 640 260 644.250 260.023 L 648.500 260.046 655.441 272.023 C 661.707 282.837, 662.654 284, 665.191 284 C 666.736 284, 668 283.727, 668 283.394 C 668 283.061, 665.075 277.933, 661.500 272 C 657.925 266.067, 655 260.714, 655 260.106 C 655 259.498, 655.907 259, 657.015 259 C 658.123 259, 660.626 257.537, 662.576 255.749 C 667.058 251.642, 668.097 246.114, 665.439 240.512 C 662.743 234.832, 657.938 233.049, 645.250 233.022 L 635 233 635 258.500 M 699.069 235.700 C 697.837 238.357, 682.311 273.850, 679.362 280.750 C 677.978 283.989, 677.983 284, 680.874 284 C 683.494 284, 684.042 283.371, 686.538 277.500 L 689.300 271 702.538 271 L 715.775 271 718.538 277.500 C 721.017 283.333, 721.592 284, 724.150 284 C 725.718 284, 727 283.812, 727 283.582 C 727 283.351, 722.305 271.989, 716.567 258.332 C 706.561 234.518, 706.015 233.488, 703.250 233.200 C 700.923 232.958, 700.116 233.441, 699.069 235.700 M 742 258.500 L 742 284 744.500 284 L 747 284 747 258.500 L 747 233 744.500 233 L 742 233 742 258.500 M 768 258.500 L 768 284 770.480 284 L 772.961 284 773.230 262.440 L 773.500 240.881 788.448 262.440 C 802.806 283.148, 803.527 284, 806.698 284 L 810 284 810 258.500 L 810 233 807.520 233 L 805.039 233 804.770 254.560 L 804.500 276.119 789.552 254.560 C 775.194 233.852, 774.473 233, 771.302 233 L 768 233 768 258.500 M 831 258.500 L 831 284 833.500 284 L 836 284 836 258.500 L 836 233 833.500 233 L 831 233 831 258.500 M 857 258.500 L 857 284 859.480 284 L 861.961 284 862.230 262.440 L 862.500 240.881 877.448 262.440 C 891.806 283.148, 892.527 284, 895.698 284 L 899 284 899 258.500 L 899 233 896.520 233 L 894.039 233 893.770 254.560 L 893.500 276.119 878.552 254.560 C 864.194 233.852, 863.473 233, 860.302 233 L 857 233 857 258.500 M 640 246.500 L 640 255 647.050 255 C 657.173 255, 661 252.668, 661 246.500 C 661 240.332, 657.173 238, 647.050 238 L 640 238 640 246.500 M 697.193 252.415 C 694.337 259.250, 692 265.103, 692 265.421 C 692 265.740, 696.924 266, 702.943 266 L 713.886 266 708.844 253.750 C 706.071 247.012, 703.484 241.159, 703.095 240.743 C 702.705 240.327, 700.049 245.579, 697.193 252.415 M 354 246.884 L 354 253 360.309 253 C 363.841 253, 367.318 252.450, 368.208 251.750 C 370.849 249.674, 371.234 246.510, 369.157 243.945 C 367.605 242.029, 366.081 241.536, 360.634 241.189 L 354 240.767 354 246.884 M 542 247.366 L 542 254 548.277 254 C 556.110 254, 559 252.266, 559 247.566 C 559 243.006, 557.114 241.813, 548.985 241.231 L 542 240.731 542 247.366 M 354 269 L 354 276 359.351 276 C 371.232 276, 376.578 270.487, 370.545 264.455 C 368.404 262.313, 367.192 262, 361.045 262 L 354 262 354 269 M 941 294.682 C 933.981 295.948, 930.518 297.440, 926.786 300.804 C 915.532 310.949, 914.831 329.895, 925.307 340.835 C 929.444 345.156, 932.264 346.578, 939.271 347.873 C 947.731 349.437, 954.912 347.748, 960.285 342.931 C 964.393 339.248, 964.449 339.113, 962.500 337.632 C 957.443 333.789, 956.134 333.525, 953.657 335.853 C 945.903 343.137, 932.068 338.458, 929.004 327.514 C 925.764 315.942, 931.633 305.605, 942.613 303.545 C 945.498 303.003, 947.331 303.407, 951.267 305.449 L 956.260 308.039 959.694 305.420 C 963.052 302.859, 963.088 302.754, 961.314 300.755 C 957.731 296.716, 947.191 293.565, 941 294.682 M 831 321.500 L 831 347 847.057 347 L 863.115 347 862.807 342.750 L 862.500 338.500 851.750 338.216 L 841 337.932 841 316.966 L 841 296 836 296 L 831 296 831 321.500 M 875 321.500 L 875 347 891.057 347 L 907.115 347 906.807 342.750 L 906.500 338.500 895.750 338.216 L 885 337.932 885 316.966 L 885 296 880 296 L 875 296 875 321.500" stroke="none" fill="#040404" fill-rule="evenodd"/></svg>