<svg xmlns="http://www.w3.org/2000/svg" width="1055" height="413" viewBox="0 0 1055 413" version="1.1"><path d="M 948.300 244.862 C 937.820 248.483, 930.906 255.302, 926.912 265.952 C 925.236 270.423, 924.897 273.252, 925.166 280.526 C 925.454 288.315, 925.949 290.463, 928.771 296.191 C 932.528 303.817, 937.092 308.237, 944.900 311.812 C 954.564 316.236, 969.467 315.866, 980.975 310.915 L 986 308.754 986 292.377 L 986 276 974 276 L 962 276 962 279 L 962 282 970.500 282 L 979 282 979 293.339 C 979 304.634, 978.989 304.684, 976.352 305.885 C 972.283 307.740, 960.971 308.855, 955.310 307.960 C 940.951 305.690, 932 294.570, 932 279 C 932 266.796, 937.746 256.890, 947.444 252.374 C 956.769 248.032, 970.846 249.755, 977.564 256.061 C 979.612 257.985, 979.647 257.978, 982.373 255.133 L 985.118 252.267 980.354 249.111 C 971.103 242.983, 958.552 241.320, 948.300 244.862 M 333 278.921 L 333 313 349.250 312.994 C 366.522 312.988, 370.776 312.312, 376.026 308.740 C 380.659 305.586, 383.058 301.986, 383.696 297.227 C 384.868 288.490, 381.215 281.241, 374.153 278.291 L 370.713 276.853 373.606 275.070 C 378.643 271.966, 380.310 269.306, 380.781 263.622 C 381.353 256.734, 379.048 251.722, 373.670 248.161 C 369.744 245.560, 369.237 245.493, 351.326 245.171 L 333 244.841 333 278.921 M 391 279 L 391 313 397.500 313 L 404 313 404 279 L 404 245 397.500 245 L 391 245 391 279 M 413 279 L 413 313 419.476 313 L 425.952 313 426.226 296.634 L 426.500 280.269 440.877 296.634 L 455.255 313 464.336 313 L 473.416 313 469.410 308.750 C 452.455 290.767, 440 277.108, 440 276.498 C 440 276.099, 447.087 268.870, 455.750 260.433 L 471.500 245.093 462.652 245.047 L 453.804 245 439.947 259.250 L 426.090 273.500 426.045 259.250 L 426 245 419.500 245 L 413 245 413 279 M 474 279 L 474 313 498 313 L 522 313 522 307.500 L 522 302 504.500 302 L 487 302 487 293 L 487 284 502.500 284 L 518 284 518 278 L 518 272 502.500 272 L 487 272 487 264 L 487 256 503.500 256 L 520 256 520 250.500 L 520 245 497 245 L 474 245 474 279 M 528 279 L 528 313 534.500 313 L 541 313 541 299 L 541 285 545.295 285 L 549.590 285 556.936 298.586 C 560.977 306.058, 564.826 312.380, 565.491 312.635 C 566.155 312.890, 569.692 312.964, 573.351 312.799 L 580.003 312.500 571.883 299 C 567.417 291.575, 563.579 285.032, 563.355 284.460 C 563.131 283.889, 564.442 282.880, 566.268 282.220 C 578.259 277.884, 581.906 260.018, 572.610 251.156 C 567.378 246.169, 561.937 245, 543.965 245 L 528 245 528 279 M 577 248 L 577 251 588.500 251 L 600 251 600 282 L 600 313 603.500 313 L 607 313 607 282 L 607 251 618.500 251 L 630 251 630 248 L 630 245 603.500 245 L 577 245 577 248 M 636 278.928 L 636 313 639.500 313 L 643 313 643 296.950 L 643 280.900 648.726 281.200 L 654.453 281.500 663.779 297.250 L 673.104 313 679.842 313 L 686.580 313 690.391 304 L 694.201 295 711.851 295.013 L 729.500 295.026 733 303.763 C 736.466 312.416, 736.536 312.503, 740.250 312.810 C 742.313 312.981, 744 312.728, 744 312.248 C 744 311.768, 737.770 296.553, 730.155 278.437 L 716.310 245.500 712.414 245.500 L 708.518 245.500 694.509 277.730 C 686.804 295.456, 680.222 309.969, 679.882 309.980 C 679.165 310.003, 661.647 280.972, 662.158 280.606 C 662.346 280.471, 664.498 279.786, 666.939 279.083 C 681.254 274.965, 682.925 254.241, 669.487 247.500 C 666.155 245.828, 663.078 245.447, 650.750 245.178 L 636 244.856 636 278.928 M 749 279 L 749 313 752.500 313 L 756 313 756 279 L 756 245 752.500 245 L 749 245 749 279 M 769 278.945 L 769 313 772.485 313 L 775.970 313 776.235 284.063 L 776.500 255.126 796.500 284.023 L 816.500 312.920 821.250 312.960 L 826 313 826 279 L 826 245 822.515 245 L 819.030 245 818.765 274.170 L 818.500 303.341 798.383 274.420 L 778.267 245.500 773.633 245.195 L 769 244.890 769 278.945 M 839 279 L 839 313 842.500 313 L 846 313 846 279 L 846 245 842.500 245 L 839 245 839 279 M 859 278.945 L 859 313 862.485 313 L 865.970 313 866.235 284.063 L 866.500 255.126 886.500 284.023 L 906.500 312.920 911.250 312.960 L 916 313 916 279 L 916 245 912.515 245 L 909.030 245 908.765 274.170 L 908.500 303.341 888.383 274.420 L 868.267 245.500 863.633 245.195 L 859 244.890 859 278.945 M 643 263.035 L 643 275.302 653.028 274.691 C 666.861 273.848, 671.531 270.751, 671.299 262.574 C 671.072 254.551, 666.571 251.789, 652.750 251.190 L 643 250.767 643 263.035 M 704.285 271.222 C 700.317 280.672, 697.217 288.550, 697.396 288.729 C 697.575 288.909, 704.255 288.930, 712.240 288.778 L 726.758 288.500 719.672 271.250 C 715.775 261.762, 712.342 254.009, 712.043 254.020 C 711.744 254.031, 708.253 261.772, 704.285 271.222 M 346 263.901 L 346 272 353.750 271.996 C 364.072 271.991, 368 269.834, 368 264.170 C 368 258.059, 365.567 256.570, 354.896 256.151 L 346 255.801 346 263.901 M 541 264.477 L 541 273.193 550.397 272.847 C 561.779 272.427, 564 271.064, 564 264.500 C 564 257.994, 561.850 256.673, 550.443 256.174 L 541 255.761 541 264.477 M 346 292.465 L 346 302.233 355.955 301.833 C 364.828 301.476, 366.192 301.168, 368.501 298.999 C 370.659 296.972, 371.042 295.824, 370.796 292.133 C 370.359 285.594, 367.862 284.134, 355.747 283.339 L 346 282.698 346 292.465" stroke="none" fill="#040404" fill-rule="evenodd"/><path d="M 468.614 49.025 C 452.178 50.910, 445.117 54.764, 431.649 69.203 L 422.370 79.151 401.435 80.093 C 389.921 80.611, 379.825 81.246, 379 81.504 C 377.963 81.828, 376.472 79.987, 374.168 75.539 C 370.688 68.818, 362.817 59.991, 358.155 57.580 C 354.036 55.450, 340.032 53.647, 336.898 54.844 C 333.818 56.021, 330.969 61.605, 327.770 72.739 C 325.913 79.202, 325.537 83.008, 325.522 95.500 C 325.506 108.961, 325.735 111.001, 327.752 115.377 C 328.988 118.060, 330 120.388, 330 120.551 C 330 120.714, 325.163 124.568, 319.250 129.115 C 313.337 133.662, 302.051 142.734, 294.170 149.274 C 281.434 159.842, 279.654 161.011, 278.170 159.777 C 277.251 159.014, 274.054 156.246, 271.065 153.626 C 252.209 137.098, 227.148 125.352, 202.440 121.460 C 189.812 119.471, 170.213 119.916, 158.500 122.458 C 102.639 134.580, 64.060 178.674, 60.138 234.881 C 55.921 295.312, 88.615 346.597, 143.500 365.648 C 162.353 372.192, 184.128 373.930, 204.152 370.489 C 235.338 365.129, 266.362 347.615, 284.010 325.407 C 289.116 318.981, 297 306.267, 297 304.457 C 297 304.063, 292.387 308.451, 286.750 314.210 C 281.113 319.968, 273.125 327.043, 269 329.931 C 227.331 359.109, 178.501 354.683, 144.249 318.626 C 131.556 305.263, 124.204 292.240, 119.903 275.500 C 116.553 262.463, 116.747 244.438, 120.387 230.500 C 134.216 177.548, 186.277 145.458, 235.567 159.504 C 245.747 162.406, 265 171.315, 265 173.126 C 265 173.789, 261.288 177.732, 256.750 181.888 C 231.881 204.664, 197.477 240.301, 190.716 250.290 C 187.444 255.124, 187.534 257.618, 190.966 257.231 C 192.278 257.083, 207.109 247.784, 223.925 236.566 C 262.740 210.675, 286.846 195.833, 289.474 196.210 C 290.946 196.421, 293.035 199.549, 297.109 207.641 C 301.972 217.298, 303.970 222.675, 309.876 242 C 310.729 244.790, 310.869 242.964, 310.568 233 C 310.164 219.611, 308.170 209.996, 303.467 198.758 C 299.139 188.414, 298.786 189.431, 308.211 185.077 C 319.671 179.783, 340.368 172.361, 350.325 169.975 C 375.618 163.915, 390.881 167.060, 430.880 186.571 C 442.640 192.307, 453.338 197, 454.655 197 C 457.468 197, 458.244 195.336, 459.891 185.774 C 462.046 173.268, 464.762 166.282, 469.301 161.568 C 474.403 156.271, 478.437 155.013, 490.343 155.006 C 506.832 154.995, 528.804 160.704, 590.895 181.130 C 670.503 207.319, 687.684 211.062, 722 209.691 C 751.701 208.505, 767.583 203.142, 807.191 180.919 C 831.545 167.255, 846.984 159.909, 861.500 155.079 C 895.344 143.818, 921.991 145.712, 959.513 162.048 C 977.990 170.092, 979.985 169.789, 969.750 160.489 C 939.895 133.365, 903.066 117.110, 862 112.934 C 847.417 111.450, 830.727 112.295, 811.158 115.506 C 788.028 119.302, 785.753 119.015, 784.374 112.119 C 783.460 107.550, 780.854 106.476, 774.424 108.018 C 769.532 109.192, 768.982 109.131, 766.450 107.139 C 761.720 103.419, 757.748 104.250, 741.369 112.387 C 716.038 124.973, 705.217 128, 685.563 128 C 678.795 128, 666.787 127.280, 658.879 126.401 C 633.252 123.551, 625 125.395, 625 133.974 C 625 138.476, 623.551 140, 619.268 140 C 610.375 140, 592.877 131.747, 559.470 111.797 C 524.383 90.842, 516.047 86.875, 500.016 83.504 C 495.045 82.458, 467.806 79, 464.543 79 C 464.244 79, 464 78.360, 464 77.578 C 464 73.679, 477.244 72.346, 529.500 70.985 C 595.616 69.263, 599.975 67.835, 565.493 59.191 C 531.120 50.576, 491.426 46.410, 468.614 49.025" stroke="none" fill="#fc7238" fill-rule="evenodd"/></svg>