<?xml version="1.0"?>
<svg version="1.2" baseProfile="tiny-ps" viewBox="0 0 258 258" xmlns="http://www.w3.org/2000/svg">
    <title>Biker Training LLC</title>
    <g>
        <g fill="#ff8748" transform="matrix(.1 0 0 -.1 0 258)">
            <path d="M1039 2534c-486-88-855-435-976-921l-27-108-1-190v-190l18-82c38-176 98-322 195-468l47-70 82-86 82-85 78-56C682 174 858 99 1040 63l85-17 135 1 135 1 102 21c184 38 340 103 500 206l81 53 77 73c88 84 155 170 196 251l29 58-82-87-83-86-80-60-80-59-87-44c-48-24-127-56-175-71l-88-27h-160l-160-1-65 19c-204 59-385 182-522 355l-59 73-49 102-49 101-22 90-21 90 5 145 4 145 27 90c112 374 411 648 771 706l76 12 107-6 107-6 90-26 90-26 95-47 95-47 3-16 3-16-63-59c-146-134-578-575-636-647l-62-78v-39h40l242 164c244 163 510 335 646 416l73 43 20-19c12-11 43-64 70-119 42-87 61-137 118-315l11-35-5 105-5 106-24 94c-13 53-38 126-55 164l-31 69 17 13c10 7 48 26 85 41l68 28v243c0 133-3 242-6 242-6 0-172-134-287-232l-68-58-82 71c-199 173-423 282-664 324l-86 15-136-1-136-1-76-14z"/>
        </g>
        <g fill="#ff7c3f" transform="matrix(.1 0 0 -.1 0 258)">
            <path d="m2546 2235 5-13-10-7-11-6v10c0 6-4 11-10 11-5 0-10-7-10-15s-5-15-11-15h-10l6-9 5-10-10-6-10-6v24l-6-6-7-6-31 13-32 13-3-21c-1-11-3-27-3-34l-1-13-11 11c-5 5-16 10-24 10h-13l6-9 6-10-21 4-20 4-5-10-6-9-10 5c-5 4-9 14-9 23v17l9-14 9-14 11 7c17 11 13 23-7 21-25-1-79-44-85-66l-5-19h-33l6 10 6 10 11-6 11-7-7 11c-10 17-33 15-40-4l-6-16-13 10-13 11-14-11-15-10 18 6 17 5v-9c0-10-14-14-39-11l-13 2 6-9 6-10-17 2c-9 2-19 9-21 17l-4 14 9-12 9-12 13 22 14 22-15-13-16-13-5 13-5 13-1-12-1-11-22 6-21 5 7-11 7-12h-36l14-9 15-10 13 17 12 17-4-22-4-23 12 3 12 2-3-24-4-24-61-55c-121-108-573-568-635-645l-62-78v-39h40l242 164c244 163 510 335 646 416l73 43 20-19c12-11 43-64 70-119 42-87 61-137 118-315l11-35-5 105-5 106-24 94c-13 53-38 126-55 164l-31 69 17 13c10 7 48 26 86 41l67 28-2 149-3 149-17 3-17 2 5-13zm-108-63 4-12h-23l5 9 6 9-10 5-10 6 12-3c6-1 14-8 16-14zm-158-32c0-5-5-10-11-10h-10l6 10c3 6 8 10 11 10 2 0 4-4 4-10zm-22-35c-3-3-9 2-12 12l-7 18 12-12c7-7 10-15 7-18zm222 115-15-10h12c6 0 15 5 18 10 8 12 4 12-15 0zm-114-41c20-23 24-23 24-5v14l-21 5-21 6 18-20zm-156-39-15-10h12c6 0 15 5 18 10 8 12 4 12-15 0zm-54-8c-2-4-1-14 5-22l9-15v23c0 23-5 28-14 14zM623 1624l-26-26-8 14-9 13v-26l-10 6-10 6v-23l18 7 17 6-13-13-13-13-13 18c-7 9-16 17-20 17-9 0-3-24 9-32l10-8h-46l6-10 6-10h-10c-5 0-17-7-25-16l-16-15v31h-15c-7 0-19 8-25 18l-12 17 6-16 5-17-30-6-29-5v-23l15 12 15 12v-10c0-6-5-14-10-17l-11-7-14 12-15 12v-37l-10 15-10 15-1-10c-1-5-1-14 1-20 1-5-8-1-20 10s-21 15-20 10c2-6 2-16 1-24l-1-14-7 6-6 7-13-11-12-10-14 18c-7 10-20 19-28 21l-14 3 16-18 16-18-14-12c-16-16-25-16-22-2 2 6-3 14-11 17l-14 5 8-13 8-13-12 7-12 8-24-16c-31-20-44-20-68 1l-19 18 18-32 19-32 7 12 8 12v-12c0-6-4-14-10-18l-9-6-22 22-22 22 6-16 6-17H27l6-152 6-153 16-72c37-170 99-315 193-458l47-70 82-86 82-85 78-56C682 174 858 99 1040 63l85-17 135 1 135 1 102 21c184 38 340 103 500 206l81 53 77 73c88 84 155 170 196 251l29 58-82-87-83-86-80-60-80-59-87-44c-48-24-127-56-175-71l-88-27h-160l-160-1-65 19c-204 59-385 182-522 355l-59 73-49 102-49 101-22 90-21 90 5 145 4 145 27 90c15 50 34 103 41 119l14 28-12-10c-6-5-20-9-29-9h-17l5 9c3 5 9 6 13 4l8-5v14c0 20-4 19-34-11zm-178-94 6-10-15 6c-18 7-21 14-7 14 6 0 13-4 16-10zm-95-54c0-2-9-6-20-9l-20-5v9c0 5 9 9 20 9s20-2 20-4zm-180-36c0-5-5-10-11-10h-10l6 10c3 6 8 10 11 10 2 0 4-4 4-10zm306 131-6-10 9-5 10-6 5 9 6 10-9 5-10 6-5-9z"/>
        </g>
        <g fill="#ff6d33" transform="matrix(.1 0 0 -.1 0 258)">
            <path d="m2460 1610-15-9 20-16 20-15-17 6c-23 8-23 11 11-93 15-48 33-104 39-123l10-35 1 57c1 72-18 209-31 226-12 14-18 15-38 2zm-985-290 6-10h-22l6-10c10-16 21-11 22 10l2 20h-20l6-10zm31-7-5-13h8c5 0 14 6 20 13l11 14h-15c-8 0-16-6-19-14zm-120-38-20-23-13 5-13 5v-37l-9 13-8 14-7-17c-3-9-6-23-6-31v-14h18c10 0 49 20 87 44l67 43-11 8-12 7-13-17-13-18-14 6-14 5 18 1 17 1v22l-14-5-15-6-3 8c-2 5-12-2-22-14zm-793-252c25-7 21-18-9-21l-25-2 7 12 7 11-11-7c-13-8-16-32-4-39 4-2 0-2-8 1-15 5-40 6-73 3l-18-1 6-9 5-10-10-6-11-7-16 14-17 13 9-14 8-14-16 6-16 6 5-13 5-13h-32l5 14 6 14-10-6c-6-3-10-13-10-21v-14l-15-1c-8-1-23-2-32-2-10-1-20-4-23-8s-18-8-35-10c-16-2-36-7-42-12-7-5-13-7-13-4s-12-1-27-8l-27-14-8 12-8 12-6-24-7-23-13 23c-7 13-13 19-14 13 0-19 48-128 90-204 180-320 481-534 850-607l85-17 135 1 135 1 102 21c184 38 340 103 500 206l81 53 77 73c88 84 155 170 196 251l29 58-82-87-83-86-80-60-80-59-87-44c-48-24-127-56-175-71l-88-27h-160l-160-1-65 19c-204 59-385 182-522 354l-58 74-50 101-49 101-12 53-12 53-21-1-21-1 18-5zm-277-75 5-8 10 5c13 9 11 12-6 12h-14l5-9z"/>
        </g>
        <g fill="#ff5822" transform="matrix(.1 0 0 -.1 0 258)">
            <path d="m2295 622-80-85-80-60-80-59-87-44c-48-24-127-56-175-71l-88-27h-160l-160-1-65 19c-91 26-216 86-290 137-96 67-113 77-133 78l-18 1 7-11 7-11-22 7-21 6v-22l-10 6-10 6v-20l-12 4-13 4-19-14-18-14 7-13 6-13-13 15c-14 17-23 18-51 6-9-5-26-6-37-3l-20 5v-9c0-5 5-9 12-9h12l-20-15c-10-8-26-14-34-14l-15 1 13 5c6 2 12 9 12 14 0 14-27 11-44-6-8-8-19-15-24-15-6 0-13-6-16-12l-6-13-6 13c-3 6-10 12-15 12h-8l5-14 5-14-10-7-11-6v21h-49l-3-17-4-18 21-19c126-115 357-222 565-263l85-17 135 1 135 1 102 21c184 38 340 103 500 206l81 53 77 73c88 84 155 170 196 251 16 32 28 58 27 57-2 0-39-39-83-87z"/>
        </g>
    </g>
</svg>