<svg xmlns="http://www.w3.org/2000/svg" viewBox="0 0 366.667 108.046" xml:space="preserve"><switch><g><path fill="#FFA400" d="M58.503 44.524h-8.35v-4.287a6.217 6.217 0 0 0-6.21-6.21 6.217 6.217 0 0 0-6.21 6.21v4.287h-8.35v-4.287c0-8.028 6.531-14.559 14.559-14.559s14.559 6.531 14.559 14.559v4.287z"/><path fill="#003A70" d="M61.871 44.523H26.016a2.79 2.79 0 0 0-2.783 2.783V73.83a2.79 2.79 0 0 0 2.783 2.783h35.855a2.79 2.79 0 0 0 2.783-2.783V47.307a2.79 2.79 0 0 0-2.783-2.784zm-16.11 17.415v3.594a1.818 1.818 0 0 1-3.634 0v-3.593a3.69 3.69 0 1 1 5.505-3.209 3.682 3.682 0 0 1-1.871 3.208z"/><path fill="#FFA400" d="M22.382 40.569H13.73a2.54 2.54 0 1 1 0-5.08h8.652a2.54 2.54 0 1 1 0 5.08zM28.476 26.959a2.53 2.53 0 0 1-1.612-.578l-6.844-5.627a2.54 2.54 0 1 1 3.227-3.924l6.844 5.627a2.54 2.54 0 0 1-1.615 4.502zM43.944 20.977a2.54 2.54 0 0 1-2.54-2.54v-8.72a2.54 2.54 0 1 1 5.08 0v8.72a2.54 2.54 0 0 1-2.54 2.54zM59.411 26.959a2.54 2.54 0 0 1-1.615-4.502l6.844-5.627a2.54 2.54 0 0 1 3.227 3.924l-6.844 5.627a2.529 2.529 0 0 1-1.612.578zM74.158 40.569h-8.734a2.54 2.54 0 1 1 0-5.08h8.734a2.54 2.54 0 1 1 0 5.08z"/><path fill="#003A70" d="M85.519 76.613v-32.28h7.842V69.82h12.493v6.793H85.519zM131.673 65.534v.912c0 .304-.016.593-.045.867h-16.459c.061.638.251 1.216.57 1.732.319.517.729.965 1.231 1.345.501.38 1.063.677 1.687.889a5.949 5.949 0 0 0 1.938.319c1.186 0 2.188-.22 3.009-.661a5.934 5.934 0 0 0 2.006-1.71l5.198 3.283c-1.064 1.55-2.47 2.744-4.217 3.579-1.749.836-3.777 1.254-6.087 1.254-1.703 0-3.313-.267-4.833-.798-1.521-.531-2.85-1.307-3.99-2.325-1.14-1.018-2.037-2.272-2.69-3.762-.654-1.489-.98-3.191-.98-5.106 0-1.854.319-3.533.957-5.038.639-1.505 1.505-2.781 2.599-3.83s2.386-1.861 3.875-2.439c1.489-.577 3.1-.866 4.833-.866 1.671 0 3.207.282 4.605.844a10.019 10.019 0 0 1 3.602 2.439c1.003 1.064 1.785 2.356 2.348 3.875.561 1.52.843 3.252.843 5.197zm-6.885-2.872c0-1.185-.373-2.203-1.117-3.055-.745-.851-1.862-1.276-3.351-1.276-.729 0-1.398.114-2.006.342-.608.228-1.14.54-1.596.935a4.623 4.623 0 0 0-1.094 1.391 4.075 4.075 0 0 0-.456 1.664h9.62zM143.618 59.47v8.696c0 1.068.205 1.869.615 2.403.411.534 1.147.801 2.211.801.365 0 .752-.03 1.163-.091.41-.061.752-.152 1.026-.273l.091 5.471c-.518.182-1.17.342-1.96.479-.791.137-1.581.205-2.371.205-1.52 0-2.797-.191-3.83-.571-1.034-.38-1.862-.929-2.485-1.646-.624-.716-1.072-1.569-1.345-2.56s-.41-2.095-.41-3.314v-9.6h-3.647v-5.562h3.602v-5.973h7.341v5.973h5.334v5.562h-5.335zM173.162 60.61a8.36 8.36 0 0 0-2.143-1.459 5.919 5.919 0 0 0-2.599-.592c-.7 0-1.345.137-1.938.41-.592.273-.889.745-.889 1.414 0 .638.326 1.094.98 1.368.653.273 1.71.578 3.169.912.851.183 1.709.441 2.576.775s1.648.775 2.348 1.322a6.337 6.337 0 0 1 1.687 2.006c.425.791.638 1.732.638 2.827 0 1.429-.289 2.637-.866 3.625a7.108 7.108 0 0 1-2.257 2.394 9.741 9.741 0 0 1-3.123 1.322c-1.156.273-2.311.41-3.465.41-1.854 0-3.67-.296-5.448-.889-1.778-.593-3.26-1.466-4.445-2.622l4.195-4.422c.668.729 1.489 1.338 2.462 1.824a6.841 6.841 0 0 0 3.1.729c.608 0 1.208-.144 1.801-.433.592-.289.889-.798.889-1.527 0-.699-.365-1.215-1.094-1.55-.729-.334-1.869-.684-3.419-1.049a17.564 17.564 0 0 1-2.371-.729 7.471 7.471 0 0 1-2.12-1.231 6.096 6.096 0 0 1-1.527-1.915c-.396-.759-.593-1.671-.593-2.735 0-1.368.289-2.53.866-3.488a7.325 7.325 0 0 1 2.234-2.348 9.93 9.93 0 0 1 3.032-1.345 13.112 13.112 0 0 1 3.306-.433c1.702 0 3.366.267 4.992.798 1.626.532 3.001 1.33 4.126 2.394l-4.104 4.237zM190.378 76.613v-32.28h21.703v6.565h-14.18v6.109h13.404v6.246h-13.404v6.703h15v6.656h-22.523zM232.611 76.613V64.212c0-.638-.054-1.246-.16-1.824a5.08 5.08 0 0 0-.524-1.527 2.734 2.734 0 0 0-1.026-1.049c-.441-.258-.996-.387-1.664-.387-.669 0-1.254.129-1.755.387-.501.259-.92.616-1.254 1.072-.335.456-.585.98-.752 1.573s-.25 1.208-.25 1.847v12.31h-7.523V53.908h7.25v3.146h.091a7.544 7.544 0 0 1 1.072-1.436c.44-.471.957-.874 1.55-1.208a9.665 9.665 0 0 1 1.938-.82 7.655 7.655 0 0 1 2.234-.319c1.52 0 2.811.273 3.875.821 1.063.547 1.922 1.254 2.576 2.12a8.359 8.359 0 0 1 1.413 2.986c.289 1.125.433 2.25.433 3.374v14.042h-7.524zM259.374 61.249c-.426-.547-1.003-.987-1.732-1.322a5.317 5.317 0 0 0-2.234-.501c-.791 0-1.504.16-2.143.479-.639.319-1.186.745-1.642 1.277s-.813 1.147-1.071 1.846a6.383 6.383 0 0 0-.388 2.234c0 .791.121 1.535.365 2.233.243.7.6 1.315 1.072 1.847a5.082 5.082 0 0 0 1.687 1.254c.653.305 1.391.456 2.211.456.759 0 1.512-.144 2.257-.433.745-.289 1.345-.707 1.801-1.254l4.149 5.061c-.943.912-2.159 1.626-3.647 2.143-1.49.517-3.071.775-4.742.775-1.794 0-3.468-.273-5.022-.82-1.555-.548-2.905-1.346-4.051-2.394-1.147-1.049-2.049-2.317-2.707-3.808-.658-1.488-.986-3.176-.986-5.061 0-1.854.328-3.526.986-5.016.657-1.489 1.56-2.758 2.707-3.807 1.146-1.049 2.497-1.854 4.051-2.417 1.554-.562 3.213-.844 4.977-.844.821 0 1.634.076 2.439.228.805.152 1.58.358 2.325.616.744.258 1.428.578 2.052.958.623.38 1.163.798 1.619 1.253l-4.333 5.017zM281.263 60.063a5.92 5.92 0 0 0-.98-.183 9.991 9.991 0 0 0-.935-.045c-1.003 0-1.846.183-2.53.546-.684.364-1.231.803-1.641 1.318a4.984 4.984 0 0 0-.889 1.683c-.183.606-.274 1.136-.274 1.591v11.641h-7.477V53.935h7.204v3.283h.091a7.387 7.387 0 0 1 2.462-2.846c1.063-.734 2.295-1.102 3.693-1.102.303 0 .6.016.889.045.289.031.524.077.707.137l-.32 6.611zM298.811 80.033a19.875 19.875 0 0 1-1.527 3.168 9.547 9.547 0 0 1-2.006 2.371c-.775.653-1.687 1.147-2.736 1.481-1.048.335-2.288.502-3.716.502a17.87 17.87 0 0 1-2.166-.137 13.374 13.374 0 0 1-1.938-.365l.821-6.291c.365.121.768.22 1.208.296.44.075.843.114 1.208.114 1.155 0 1.99-.267 2.508-.798.516-.532.958-1.285 1.322-2.257l.729-1.869-9.483-22.341h8.298l5.061 14.59h.137l4.514-14.59h7.933l-10.167 26.126zM336.197 65.169c0 1.581-.244 3.1-.729 4.559-.487 1.459-1.193 2.743-2.12 3.853a10.487 10.487 0 0 1-3.397 2.668c-1.338.668-2.857 1.003-4.559 1.003a9.54 9.54 0 0 1-3.967-.844c-1.247-.562-2.219-1.329-2.918-2.303h-.091v13.45h-7.477V53.908h7.112v2.781h.137c.699-.912 1.664-1.709 2.895-2.394s2.682-1.026 4.354-1.026c1.642 0 3.13.319 4.468.958a10.073 10.073 0 0 1 3.396 2.599c.927 1.094 1.642 2.364 2.143 3.807.502 1.444.753 2.956.753 4.536zm-7.249 0c0-.729-.114-1.443-.342-2.143a5.58 5.58 0 0 0-1.003-1.846 5.092 5.092 0 0 0-1.664-1.3c-.669-.334-1.444-.501-2.325-.501-.851 0-1.611.167-2.28.501a5.43 5.43 0 0 0-1.709 1.322 6.021 6.021 0 0 0-1.094 1.87 6.12 6.12 0 0 0 0 4.286c.258.7.623 1.322 1.094 1.87a5.453 5.453 0 0 0 1.709 1.322c.668.334 1.429.501 2.28.501.881 0 1.656-.167 2.325-.501a4.957 4.957 0 0 0 1.664-1.322 5.81 5.81 0 0 0 1.003-1.893 7.081 7.081 0 0 0 .342-2.166zM348.143 59.47v8.696c0 1.068.205 1.869.615 2.403.411.534 1.147.801 2.211.801.365 0 .752-.03 1.163-.091s.752-.152 1.026-.274l.091 5.472c-.518.183-1.17.342-1.96.479-.791.137-1.581.205-2.371.205-1.52 0-2.797-.19-3.83-.571-1.034-.38-1.862-.929-2.485-1.646-.624-.716-1.072-1.569-1.345-2.56s-.41-2.095-.41-3.314v-9.6H337.2v-5.562h3.602v-5.973h7.341v5.973h5.334v5.562h-5.334zM155.811 43.714c-2.243 0-4.001 1.617-4.001 3.681 0 2.175 1.479 3.636 3.681 3.636.188 0 .366-.017.533-.051-.352 1.609-1.903 2.765-3.369 2.996l-.298.047v3.471l.387-.037a8.196 8.196 0 0 0 4.822-2.217c1.678-1.616 2.565-3.951 2.565-6.751-.001-2.767-1.817-4.775-4.32-4.775z"/></g></switch></svg>